<svg width="406.1" height="72.401" viewBox="0 0 406.1 72.401" xmlns="http://www.w3.org/2000/svg"><g id="svgGroup" stroke-linecap="round" fill-rule="evenodd" font-size="9pt" stroke="#000" stroke-width="0.25mm" fill="#000" style="stroke:#000;stroke-width:0.25mm;fill:#000"><path d="M 362.6 71.2 L 353.6 71.2 L 353.6 1.2 L 366.2 1.2 L 397.1 59.4 L 397.1 1.2 L 406.1 1.2 L 406.1 71.2 L 393.7 71.2 L 362.6 13.4 L 362.6 71.2 Z M 316.1 65.6 L 309.5 72.4 L 275.5 39 L 275.5 71.2 L 266 71.2 L 266 1.2 L 275.5 1.2 L 275.5 33.1 L 305.3 0.9 L 311.7 6.8 L 284.4 35.2 L 316.1 65.6 Z M 49.5 71.2 L 0 71.2 L 0 63.8 L 37.2 9.4 L 1.7 9.4 L 1.7 1.2 L 48.1 1.2 L 48.1 8.4 L 10.9 62.8 L 49.5 62.8 L 49.5 71.2 Z M 203.2 65.3 L 208 57.3 Q 211.6 60.3 216.1 62.2 A 23.348 23.348 0 0 0 221.47 63.71 A 32.118 32.118 0 0 0 226.6 64.1 A 27.981 27.981 0 0 0 231.147 63.754 Q 233.57 63.354 235.531 62.494 A 13.701 13.701 0 0 0 238 61.1 Q 242.048 58.209 242.195 53.366 A 12.116 12.116 0 0 0 242.2 53 A 11.94 11.94 0 0 0 241.863 50.107 A 9.816 9.816 0 0 0 241 47.85 A 8.097 8.097 0 0 0 239.8 46.194 Q 238.53 44.813 236.384 43.471 A 25.81 25.81 0 0 0 236.35 43.45 Q 233.234 41.508 227.465 39.28 A 118.584 118.584 0 0 0 226.2 38.8 Q 219 36 214.7 33.15 A 21.931 21.931 0 0 1 211.611 30.703 Q 209.894 29.053 208.838 27.188 A 13.303 13.303 0 0 1 208.55 26.65 Q 206.7 23 206.7 18 Q 206.7 13 209.45 8.95 Q 212.2 4.9 217.55 2.45 A 25.558 25.558 0 0 1 223.45 0.615 Q 226.693 0 230.5 0 Q 236.7 0 241.65 1.25 Q 246.6 2.5 251.3 4.8 L 247.8 12.9 A 31.496 31.496 0 0 0 243.674 10.881 A 41.686 41.686 0 0 0 239.85 9.55 Q 235.3 8.2 230.3 8.2 A 27.187 27.187 0 0 0 226.27 8.48 Q 224.138 8.8 222.4 9.487 A 12.616 12.616 0 0 0 219.9 10.8 A 9.902 9.902 0 0 0 217.737 12.765 A 7.359 7.359 0 0 0 216.1 17.5 A 10.464 10.464 0 0 0 216.392 20.022 A 8.562 8.562 0 0 0 217.2 22.1 Q 218.256 24.019 221.291 25.847 A 23.503 23.503 0 0 0 221.55 26 A 33.003 33.003 0 0 0 223.766 27.172 Q 226.035 28.275 229.246 29.523 A 130.016 130.016 0 0 0 231.3 30.3 A 81.228 81.228 0 0 1 236.278 32.329 Q 240.664 34.3 243.65 36.4 A 26.044 26.044 0 0 1 246.69 38.878 Q 248.913 41.006 250.1 43.35 A 17.579 17.579 0 0 1 251.841 49.213 A 22.155 22.155 0 0 1 252 51.9 A 21.71 21.71 0 0 1 251.333 57.401 A 17.105 17.105 0 0 1 248.75 63 Q 245.5 67.6 239.75 70 A 30.521 30.521 0 0 1 232.34 72.004 A 40.027 40.027 0 0 1 226.6 72.4 Q 219.3 72.4 213.3 70.45 A 38.206 38.206 0 0 1 207.933 68.268 A 28.433 28.433 0 0 1 203.2 65.3 Z M 139.7 68.2 L 130.8 72.4 L 122.1 53.4 A 30.586 30.586 0 0 0 119.509 48.827 Q 117.003 45.222 113.8 43.3 Q 109.445 40.687 102.964 40.35 A 37.847 37.847 0 0 0 101 40.3 L 99.5 40.3 L 99.5 71.2 L 90 71.2 L 90 1.4 Q 95.3 0.9 100.15 0.65 A 187.94 187.94 0 0 1 106.466 0.435 A 226.267 226.267 0 0 1 110.5 0.4 Q 123.3 0.4 129.75 5.6 A 17.414 17.414 0 0 1 134.38 11.134 Q 136.2 14.644 136.2 19 A 19.88 19.88 0 0 1 135.549 24.22 A 14.672 14.672 0 0 1 131.85 30.75 Q 127.5 35.2 119.3 37.4 A 23.656 23.656 0 0 1 122.729 39.263 A 20.427 20.427 0 0 1 124.1 40.25 Q 126.069 41.797 127.905 44.31 A 29.29 29.29 0 0 1 128.15 44.65 Q 130.1 47.4 132.1 51.8 L 139.7 68.2 Z M 72 71.2 L 62.5 71.2 L 62.5 1.2 L 72 1.2 L 72 71.2 Z M 161.2 71.2 L 151.7 71.2 L 151.7 1.2 L 161.2 1.2 L 161.2 71.2 Z M 335.6 71.2 L 326.1 71.2 L 326.1 1.2 L 335.6 1.2 L 335.6 71.2 Z M 99.5 8.8 L 99.5 32.3 L 110.5 32.3 A 26.489 26.489 0 0 0 115.423 31.869 Q 119.352 31.125 122.2 29.1 Q 126.7 25.9 126.7 19.9 A 9.811 9.811 0 0 0 123.427 12.436 A 13.272 13.272 0 0 0 122.5 11.65 A 13.923 13.923 0 0 0 118.136 9.429 Q 116.207 8.818 113.877 8.57 A 31.944 31.944 0 0 0 110.5 8.4 Q 107.326 8.4 104.762 8.487 A 118.974 118.974 0 0 0 104.4 8.5 Q 101.7 8.6 99.5 8.8 Z" vector-effect="non-scaling-stroke"/></g></svg>