<svg width="498.70624999999995px" height="138.8px" xmlns="http://www.w3.org/2000/svg" viewBox="0.6468750000000227 5.599999999999994 498.70624999999995 138.8" style="background: rgba(40, 41, 47, 0);" preserveAspectRatio="xMidYMid"><defs><filter id="editing-extrude-glow"><feFlood flood-color="#ffffff" result="flood-1"></feFlood><feMorphology operator="erode" radius="1" in="SourceAlpha" result="erode"></feMorphology><feComposite operator="in" in="flood-1" in2="erode" result="comp1"></feComposite><feConvolveMatrix order="3,3" divisor="1" in="comp1" result="convolve" kernelMatrix="0 0 0 1 1 1 0 0 0"></feConvolveMatrix><feOffset dx="-3" dy="0" in="convolve" result="extrude"></feOffset><feComposite operator="in" in="flood-1" in2="extrude" result="comp-extrude"></feComposite><feFlood flood-color="#f9ae5c" result="flood-2"></feFlood><feComposite operator="in" in="flood-2" in2="SourceAlpha" result="comp2"></feComposite><feMorphology operator="dilate" radius="1" in="comp2" result="dilate"></feMorphology><feOffset dx="-4.5" dy="0" in="dilate" result="offset"></feOffset><feGaussianBlur in="offset" stdDeviation="5.8" result="blur"></feGaussianBlur><feComponentTransfer in="blur" result="shadow"><feFuncA type="linear" slope="0.8" intercept="-0.2"></feFuncA></feComponentTransfer><feMerge><feMergeNode in="shadow"></feMergeNode><feMergeNode in="comp-extrude"></feMergeNode><feMergeNode in="SourceGraphic"></feMergeNode></feMerge></filter></defs><g filter="url(#editing-extrude-glow)"><g transform="translate(74.12497860193253, 100.79500198364258)"><path d="M30.46-10.50L30.46-15.74L43.20-15.74L43.20 0L0.90 0L0.90-9.22L20.61-39.30L13.95-39.30L13.95-34.05L1.22-34.05L1.22-49.79L42.18-49.79L42.18-40.58L22.53-10.50L30.46-10.50ZM69.70 0L45.38 0L45.38-10.50L48.58-10.50L48.58-39.30L45.38-39.30L45.38-49.79L69.70-49.79L69.70-39.30L66.50-39.30L66.50-10.50L69.70-10.50L69.70 0ZM72.26 0L72.26-10.50L75.46-10.50L75.46-39.30L72.26-39.30L72.26-49.79L101.63-49.79L101.63-49.79Q109.89-49.79 114.24-46.40L114.24-46.40L114.24-46.40Q118.59-43.01 118.59-35.39L118.59-35.39L118.59-35.39Q118.59-31.10 116.86-27.97L116.86-27.97L116.86-27.97Q115.14-24.83 111.94-23.62L111.94-23.62L112-22.98L112-22.98Q118.14-22.02 118.14-15.42L118.14-15.42L118.14-10.50L121.15-10.50L121.15 0L100.86 0L100.86-15.04L100.86-15.04Q100.86-17.54 100.13-18.82L100.13-18.82L100.13-18.82Q99.39-20.10 97.82-20.54L97.82-20.54L97.82-20.54Q96.26-20.99 93.38-20.99L93.38-20.99L93.38-10.50L97.60-10.50L97.60 0L72.26 0ZM93.38-28.80L96.83-28.80L96.83-28.80Q98.69-28.80 99.62-29.79L99.62-29.79L99.62-29.79Q100.54-30.78 100.54-32.90L100.54-32.90L100.54-35.20L100.54-35.20Q100.54-37.31 99.62-38.30L99.62-38.30L99.62-38.30Q98.69-39.30 96.83-39.30L96.83-39.30L93.38-39.30L93.38-28.80ZM147.78 0L123.46 0L123.46-10.50L126.66-10.50L126.66-39.30L123.46-39.30L123.46-49.79L147.78-49.79L147.78-39.30L144.58-39.30L144.58-10.50L147.78-10.50L147.78 0ZM189.38 0.90L189.38 0.90Q183.23 0.90 177.76-0.16L177.76-0.16L177.76-0.16Q172.29-1.22 169.34-2.56L169.34-2.56L169.34-15.23L183.42-15.23L183.42-15.23Q183.42-13.25 184.32-12.35L184.32-12.35L184.32-12.35Q185.22-11.46 187.58-11.46L187.58-11.46L187.58-11.46Q189.57-11.46 190.43-12.06L190.43-12.06L190.43-12.06Q191.30-12.67 191.30-13.89L191.30-13.89L191.30-13.89Q191.30-14.91 190.46-15.65L190.46-15.65L190.46-15.65Q189.63-16.38 187.58-17.15L187.58-17.15L182.08-19.07L182.08-19.07Q174.98-21.76 171.87-25.41L171.87-25.41L171.87-25.41Q168.77-29.06 168.77-35.26L168.77-35.26L168.77-35.26Q168.77-42.82 173.73-46.75L173.73-46.75L173.73-46.75Q178.69-50.69 190.27-50.69L190.27-50.69L190.27-50.69Q195.84-50.69 200.74-49.57L200.74-49.57L200.74-49.57Q205.63-48.45 208.64-46.59L208.64-46.59L208.64-35.14L195.84-35.14L195.84-35.14Q195.84-38.34 191.87-38.34L191.87-38.34L191.87-38.34Q189.95-38.34 189.15-37.86L189.15-37.86L189.15-37.86Q188.35-37.38 188.35-36.16L188.35-36.16L188.35-36.16Q188.35-35.07 189.28-34.43L189.28-34.43L189.28-34.43Q190.21-33.79 192.32-33.09L192.32-33.09L197.89-31.17L197.89-31.17Q204.67-28.86 207.78-25.18L207.78-25.18L207.78-25.18Q210.88-21.50 210.88-15.55L210.88-15.55L210.88-15.55Q210.88-7.42 205.41-3.26L205.41-3.26L205.41-3.26Q199.94 0.90 189.38 0.90L189.38 0.90ZM249.60-30.46L260.61-10.50L263.81-10.50L263.81 0L246.34 0L236.74-19.84L233.79-17.41L233.79-10.50L236.86-10.50L236.86 0L212.67 0L212.67-10.50L215.87-10.50L215.87-39.30L212.67-39.30L212.67-49.79L236.86-49.79L236.86-39.30L233.79-39.30L233.79-30.85L243.71-39.30L239.68-39.30L239.68-49.79L263.49-49.79L263.49-39.30L260.29-39.30L249.60-30.46ZM290.43 0L266.11 0L266.11-10.50L269.31-10.50L269.31-39.30L266.11-39.30L266.11-49.79L290.43-49.79L290.43-39.30L287.23-39.30L287.23-10.50L290.43-10.50L290.43 0ZM329.86-39.30L329.86-49.79L350.85-49.79L350.85-39.30L347.65-39.30L347.65 0L329.66 0L310.91-28.86L310.91-10.50L313.98-10.50L313.98 0L292.99 0L292.99-10.50L296.19-10.50L296.19-39.30L292.99-39.30L292.99-49.79L316.10-49.79L332.93-24.13L332.93-39.30L329.86-39.30Z" fill="#0a0a0a"></path></g></g><style>text {
  font-size: 64px;
  font-family: Arial Black;
  dominant-baseline: central;
  text-anchor: middle;
}</style></svg>